<?xml version="1.0" encoding="UTF-8"?>
<svg width="100pt" height="100pt" version="1.1" viewBox="0 0 100 100" xmlns="http://www.w3.org/2000/svg">
 <g>
  <path d="m69.879 51.551h-38.844l0.027344-7.625h38.793z"/>
  <path d="m67.668 38.059h-34.422c1.8164-3.207 4.5-5.8555 7.7461-7.625h18.957c3.2188 1.7656 5.9141 4.418 7.7188 7.625z"/>
  <path d="m67.953 57.016c-1.6523 3.1367-4.1328 5.7734-7.1367 7.625h-20.727c-3.0039-1.8516-5.4766-4.4883-7.1367-7.625z"/>
  <path d="m67.668 38.059h-34.422c1.8164-3.207 4.5-5.8555 7.7461-7.625h18.957c3.2188 1.7656 5.9141 4.418 7.7188 7.625z"/>
  <path d="m67.953 57.016c-1.6523 3.1367-4.1328 5.7734-7.1367 7.625h-20.727c-3.0039-1.8516-5.4766-4.4883-7.1367-7.625z"/>
  <path d="m70.234 47.797c0 1.2812-0.11719 2.5312-0.35547 3.7539h-38.844c-0.23828-1.2109-0.35547-2.4688-0.35547-3.7539 0-1.332 0.12891-2.625 0.37891-3.8711h38.793c0.25 1.2461 0.38281 2.5391 0.38281 3.8711z"/>
 </g>
</svg>
